<svg xmlns="http://www.w3.org/2000/svg" width="546" height="646" viewBox="0 0 546 646">
  <metadata><?xpacket begin="﻿" id="W5M0MpCehiHzreSzNTczkc9d"?>
<x:xmpmeta xmlns:x="adobe:ns:meta/" x:xmptk="Adobe XMP Core 5.6-c142 79.160924, 2017/07/13-01:06:39        ">
   <rdf:RDF xmlns:rdf="http://www.w3.org/1999/02/22-rdf-syntax-ns#">
      <rdf:Description rdf:about=""/>
   </rdf:RDF>
</x:xmpmeta>
                                                                                                    
                                                                                                    
                                                                                                    
                                                                                                    
                                                                                                    
                                                                                                    
                                                                                                    
                                                                                                    
                                                                                                    
                                                                                                    
                                                                                                    
                                                                                                    
                                                                                                    
                                                                                                    
                                                                                                    
                                                                                                    
                                                                                                    
                                                                                                    
                                                                                                    
                                                                                                    
                           
<?xpacket end="w"?></metadata>
<defs>
    <style>
      .cls-1 {
        fill: #b8bbbd;
      }

      .cls-1, .cls-2 {
        fill-rule: evenodd;
      }

      .cls-2 {
        fill: #edf2f4;
      }
    </style>
  </defs>
  <path id="Rectangle_2_copy_14" data-name="Rectangle 2 copy 14" class="cls-1" d="M540.863,492.144L44.031,358.071Q8.859,320.977,8.837,252.98V196.911a163.485,163.485,0,0,1,7.118-48.431l476.9,128.694a208.2,208.2,0,0,1,16.092,14.789q36.4,37.194,36.418,106.416v56.068A156.877,156.877,0,0,1,540.863,492.144ZM469.264,240.8L63.336,131.257V70.876c19.989-18.172,45.4-29.085,76.3-41.337Q204.77,3.725,296.078,3.709A651.817,651.817,0,0,1,420.722,15.591c40.681,7.926,75.4,15.156,104.125,30.3V106.27ZM59.122,392.153L498.466,507.837v58.944q-31.589,32.178-84.413,52.973-65.664,25.812-159.009,25.829a650.792,650.792,0,0,1-141.569-15.5Q43.7,614.588.63,589.792V529.411Z"/>
  <path class="cls-2" d="M63.336,70.93q29.983-27.259,76.3-45.65Q204.77-.533,296.078-0.549A651.812,651.812,0,0,1,420.722,11.332q61.022,11.89,104.125,34.611L469.264,180.472Zm435.13,435.524q-31.587,32.18-84.413,52.973-65.664,25.813-159.009,25.83a650.8,650.8,0,0,1-141.569-15.5Q43.7,554.261.63,529.466L59.122,387.9ZM8.837,192.653a163.491,163.491,0,0,1,7.118-48.432l476.9,128.7a207.83,207.83,0,0,1,16.093,14.789q36.4,37.193,36.418,106.416a156.889,156.889,0,0,1-4.5,37.7L44.031,297.744Q8.859,260.65,8.837,192.653Z"/>
</svg>
