<svg xmlns="http://www.w3.org/2000/svg" width="3044" height="448" viewBox="0 0 3044 448">
  <metadata><?xpacket begin="﻿" id="W5M0MpCehiHzreSzNTczkc9d"?>
<x:xmpmeta xmlns:x="adobe:ns:meta/" x:xmptk="Adobe XMP Core 5.6-c142 79.160924, 2017/07/13-01:06:39        ">
   <rdf:RDF xmlns:rdf="http://www.w3.org/1999/02/22-rdf-syntax-ns#">
      <rdf:Description rdf:about=""/>
   </rdf:RDF>
</x:xmpmeta>
                                                                                                    
                                                                                                    
                                                                                                    
                                                                                                    
                                                                                                    
                                                                                                    
                                                                                                    
                                                                                                    
                                                                                                    
                                                                                                    
                                                                                                    
                                                                                                    
                                                                                                    
                                                                                                    
                                                                                                    
                                                                                                    
                                                                                                    
                                                                                                    
                                                                                                    
                                                                                                    
                           
<?xpacket end="w"?></metadata>
<defs>
    <style>
      .cls-1 {
        fill: #b8bbbd;
      }

      .cls-1, .cls-2 {
        fill-rule: evenodd;
      }

      .cls-2 {
        fill: #edf2f4;
      }
    </style>
  </defs>
  <path id="Rectangle_2_copy_14" data-name="Rectangle 2 copy 14" class="cls-1" d="M2630.19,440.188h126.04l79.75-120.877,80.87,120.877H3044v-41.8L2912.99,219.183,3035.08,50.262V8.463l-119.35,2.986L2838.77,123.97,2760.69,11.448,2636.33,8.463v41.8l122.23,173.122L2630.19,398.389v41.8Zm-32.06-90.8q-28.17,46.243-77.52,72.415-49.35,26.19-111.26,26.181t-111.26-26.181q-49.35-26.176-77.52-72.415t-28.16-104.166V206.412q0-57.929,28.16-104.166t77.52-72.415Q2347.455,3.654,2409.35,3.65t111.26,26.181q49.35,26.189,77.52,72.415,28.155,46.242,28.16,104.166v38.813Q2626.29,303.165,2598.13,349.391Zm-97.32-162.377a100.337,100.337,0,0,0-37.92-39.271q-23.985-13.917-53.54-13.926t-53.54,13.926a100.2,100.2,0,0,0-37.92,39.271,111.659,111.659,0,0,0-12.58,38.369,111.53,111.53,0,0,0,12.58,39.239,100.08,100.08,0,0,0,37.92,39.271q23.97,13.931,53.54,13.926,29.55,0,53.54-13.926a100.217,100.217,0,0,0,37.92-39.271,111.53,111.53,0,0,0,12.58-39.239A112.086,112.086,0,0,0,2500.81,187.014ZM2113.78,412.336q-41.28,27.861-119.35,27.852h-210.8V11.448h199.65q74.73,0,113.77,27.573t39.04,74.364V152.2q0,27.86-13.67,49.854a90.032,90.032,0,0,1-8.39,11.4,100.173,100.173,0,0,1,22.06,21.09q18.945,24.792,18.96,59.882v38.813Q2155.05,384.494,2113.78,412.336Zm-145-282.418h-75.85v36.387h75.85q38.805,0,50.54-18.4Q2007.485,129.926,1968.78,129.918Zm16.73,151.514h-92.58v40.287h92.58q41.415,0,53.18-20.227Q2026.8,281.44,1985.51,281.432Zm-287.2,66.845q-27.33,44.01-76.96,67.959-49.65,23.957-113.77,23.952h-184.6V11.448h184.6q64.125,0,113.77,23.953,49.62,23.957,76.96,67.959,27.315,44.01,27.32,103.052v38.813Q1725.63,304.275,1698.31,348.277ZM1583.7,166.683q-30.4-28.41-80.58-28.409h-69.71V313.363h69.71q50.19,0,80.58-28.409,24.315-22.727,29.11-59.41Q1607.845,189.259,1583.7,166.683Zm-602.022,65.73V440.188H873.486V11.448h90.9l172.33,207.776V11.448h108.19v428.74H1154Zm-254.3,207.775L696.7,364.431H531.626l-30.673,75.757H388.3v-41.8L560.626,11.448H669.375L842.259,398.389v41.8H727.375ZM614.164,158.327L579.585,244.29h69.158ZM375.419,341.777L30.158,248.964Q5.717,223.287,5.7,176.215V137.4a112.776,112.776,0,0,1,4.946-33.527l331.408,89.089A144.4,144.4,0,0,1,353.239,203.2q25.3,25.746,25.307,73.666v38.813A108.237,108.237,0,0,1,375.419,341.777ZM325.663,167.783L43.574,91.952v-41.8C57.464,37.574,75.123,30.02,96.6,21.538Q141.86,3.669,205.312,3.658a454.655,454.655,0,0,1,86.618,8.225c28.27,5.487,52.4,10.491,72.359,20.974v41.8ZM40.646,272.558l305.31,80.082v40.8q-21.951,22.275-58.66,36.67Q241.665,447.984,176.8,448a453.956,453.956,0,0,1-98.379-10.728Q29.928,426.537,0,409.373v-41.8Z"/>
  <path class="cls-2" d="M727.375,397.716H842.259L669.375,7.79H560.626L388.3,397.716H500.953l30.673-75.757H696.7Zm-163.4-157.084,50.192-124.777,50.192,124.777H563.972ZM1136.72,7.79V215.565L964.39,7.79h-90.9V397.716H981.678V189.941L1154,397.716h90.91V7.79H1136.72Zm186.26,389.926h184.6q64.125,0,113.77-23.952,49.62-23.945,76.96-67.959,27.315-44,27.32-103.052,0-59.037-27.32-103.052-27.33-44-76.96-67.959Q1571.7,7.8,1507.58,7.79h-184.6V397.716ZM1433.41,309.7V95.8h69.71q50.19,0,80.58,28.409t30.4,78.542q0,50.133-30.4,78.542T1503.12,309.7h-69.71ZM2083.66,194.4q25.1-12.807,38.76-34.815t13.67-49.854q0-46.792-39.04-74.365T1983.28,7.79H1783.63V397.716h210.8q78.075,0,119.35-27.852t41.27-79.1q0-35.094-18.96-59.882-18.975-24.779-52.43-36.486h0ZM1968.78,87.446q55.755,0,55.77,37.322,0,37.887-55.77,37.878h-75.85v-75.2h75.85Zm16.73,230.614h-92.58v-79.1h92.58q57.99,0,58,39.55t-58,39.55h0Zm423.84,87.455q61.905,0,111.26-26.181t77.52-72.415q28.155-46.23,28.16-104.166T2598.13,98.587q-28.17-46.23-77.52-72.415T2409.35-.009q-61.905,0-111.26,26.181t-77.52,72.415q-28.17,46.242-28.16,104.166,0,57.94,28.16,104.166,28.155,46.244,77.52,72.415,49.365,26.19,111.26,26.181h0Zm0-91.354q-29.565,0-53.54-13.926a100.09,100.09,0,0,1-37.92-39.272q-13.95-25.34-13.94-58.21t13.94-58.21a100.2,100.2,0,0,1,37.92-39.272q23.97-13.917,53.54-13.926,29.55,0,53.54,13.926a100.34,100.34,0,0,1,37.92,39.272q13.935,25.353,13.94,58.21,0,32.874-13.94,58.21a100.226,100.226,0,0,1-37.92,39.272q-23.985,13.929-53.54,13.926h0ZM3044,397.716L2899,196.068,3035.08,7.79H2915.73l-76.96,112.521L2760.69,7.79H2636.33l136.08,192.735L2630.19,397.716h126.04l79.75-120.877,80.87,120.877H3044ZM43.574,49.481Q64.41,30.611,96.6,17.879,141.86,0.01,205.312,0A454.656,454.656,0,0,1,291.93,8.224q42.406,8.231,72.359,23.959l-38.626,93.128ZM345.957,350.972q-21.951,22.275-58.661,36.67-45.631,17.87-110.5,17.881A453.9,453.9,0,0,1,78.417,394.8Q29.928,384.066,0,366.9l40.647-98ZM5.7,133.743a112.777,112.777,0,0,1,4.946-33.527l331.408,89.089a144.4,144.4,0,0,1,11.183,10.238q25.3,25.746,25.308,73.666a108.188,108.188,0,0,1-3.128,26.1L30.158,206.492Q5.717,180.815,5.7,133.743Z"/>
</svg>
